<svg width="500" height="300" viewBox="0 0 500 300" fill="none" xmlns="http://www.w3.org/2000/svg">
<rect width="500" height="300" fill="#f1f5f9"/>
<!-- Background house outline -->
<rect x="50" y="100" width="400" height="150" fill="#e2e8f0" stroke="#94a3b8" stroke-width="2"/>
<polygon points="50,100 250,50 450,100" fill="#64748b" stroke="#475569" stroke-width="2"/>
<!-- Indoor units -->
<rect x="80" y="120" width="60" height="20" fill="#ffffff" stroke="#d1d5db" stroke-width="1" rx="4"/>
<rect x="280" y="120" width="60" height="20" fill="#ffffff" stroke="#d1d5db" stroke-width="1" rx="4"/>
<rect x="380" y="160" width="60" height="20" fill="#ffffff" stroke="#d1d5db" stroke-width="1" rx="4"/>
<!-- Outdoor unit -->
<rect x="470" y="180" width="80" height="60" fill="#374151" stroke="#1f2937" stroke-width="2" rx="4"/>
<circle cx="510" cy="210" r="15" fill="#6b7280"/>
<!-- Refrigerant lines -->
<path d="M 140 130 Q 200 140 280 130" stroke="#ef4444" stroke-width="3" fill="none"/>
<path d="M 340 130 Q 380 135 440 160" stroke="#ef4444" stroke-width="3" fill="none"/>
<path d="M 440 170 Q 460 175 470 190" stroke="#ef4444" stroke-width="3" fill="none"/>
<path d="M 142 132 Q 202 142 282 132" stroke="#3b82f6" stroke-width="3" fill="none"/>
<path d="M 342 132 Q 382 137 442 162" stroke="#3b82f6" stroke-width="3" fill="none"/>
<path d="M 442 172 Q 462 177 472 192" stroke="#3b82f6" stroke-width="3" fill="none"/>
<!-- Labels -->
<text x="110" y="155" font-family="Arial, sans-serif" font-size="10" fill="#374151" text-anchor="middle">Living Room</text>
<text x="310" y="155" font-family="Arial, sans-serif" font-size="10" fill="#374151" text-anchor="middle">Kitchen</text>
<text x="410" y="195" font-family="Arial, sans-serif" font-size="10" fill="#374151" text-anchor="middle">Bedroom</text>
<text x="510" y="265" font-family="Arial, sans-serif" font-size="10" fill="#374151" text-anchor="middle">Outdoor Unit</text>
<!-- Title -->
<text x="250" y="30" font-family="Arial, sans-serif" font-size="16" fill="#1a0033" text-anchor="middle" font-weight="bold">Multi-Zone Installation System</text>
</svg>
